<svg xmlns="http://www.w3.org/2000/svg" width="512" height="512" viewBox="0 0 60 60"><g fill="#009846" fill-rule="nonzero"><path d="m58.669 10.118-27.99-10a2.052 2.052 0 0 0-1.366 0l-27.983 10a2 2 0 0 0 0 3.763L15 18.765V25c0 3.888 13.465 4 15 4s15-.112 15-4v-6.235l3-1.065V20a2 2 0 0 0 2 2h2a2 2 0 0 0 2-2v-3a2.958 2.958 0 0 0-.326-1.331l5-1.788a2 2 0 0 0 0-3.763zM43 22.8C39.191 21.066 31.165 21 30 21s-9.191.066-13 1.8v-8.712c.6-.77 5.316-2.088 13-2.088s12.4 1.318 13 2.088zM30 27c-7.4 0-12.047-1.222-12.916-2 .869-.778 5.518-2 12.916-2s12.047 1.222 12.916 2c-.869.778-5.516 2-12.916 2zm18.469-11.595L45 16.642V14c0-3.888-13.465-4-15-4s-15 .112-15 4v2.641L2 12 30.014 2 50 9.142v5.042a3.006 3.006 0 0 0-1.531 1.221zM52 20h-2v-3a1 1 0 0 1 2 0zm0-5.856V9.857L58 12zM57 31c-.06 0-.12.005-.179.016A167.439 167.439 0 0 1 30 33c-8.98.059-17.948-.605-26.821-1.984A1.127 1.127 0 0 0 3 31c-.7 0-3 .793-3 11s2.3 11 3 11c.06-.001.12-.007.179-.018a156.4 156.4 0 0 1 20.6-1.878l-1.952 4.682a1.992 1.992 0 0 0 2.643 2.567l.765-.327.331.761A1.989 1.989 0 0 0 27.405 60h.025a1.993 1.993 0 0 0 1.833-1.248L31 54.594l1.731 4.142A2 2 0 0 0 34.57 60h.03a1.986 1.986 0 0 0 1.832-1.2l.334-.767.753.323a1.993 1.993 0 0 0 2.649-2.579l-1.914-4.59c6.222.22 12.424.821 18.572 1.8.057.01.116.014.174.013.7 0 3-.793 3-11s-2.3-11-3-11zm-23.8 3.97a21.06 21.06 0 0 1 .721 4.677 6.939 6.939 0 0 0-6.961.647 27.016 27.016 0 0 0-.687-5.332 178.326 178.326 0 0 0 6.927.008zM31 51a5 5 0 1 1 0-10 5 5 0 0 1 0 10zM3 33.5A28.047 28.047 0 0 1 4 42a28.047 28.047 0 0 1-1 8.5A28.047 28.047 0 0 1 2 42a28.047 28.047 0 0 1 1-8.5zm2.02 17.17C5.567 49.084 6 46.43 6 42s-.433-7.084-.981-8.672a175.456 175.456 0 0 0 19.165 1.583c.6 2.314.874 4.7.816 7.089 0 .145 0 .283-.006.422a6.928 6.928 0 0 0-.322 6.552l-.044.106c-6.56.16-13.107.692-19.608 1.592zM27.407 58l-.73-1.68a1 1 0 0 0-1.311-.52l-1.683.744 2.345-5.622a6.993 6.993 0 0 0 3.532 1.93zm9.227-2.2a1 1 0 0 0-1.311.52l-.74 1.663-2.144-5.133a7 7 0 0 0 3.535-1.931l2.34 5.6zM56.8 50.95a161.951 161.951 0 0 0-19.4-1.8l-.071-.172a6.959 6.959 0 0 0-1.348-7.886 27.834 27.834 0 0 0-.714-6.161c7.21-.161 14.404-.79 21.533-1.882.464.788 1.2 3.905 1.2 8.951s-.741 8.162-1.2 8.95z" class="active-path" data-old_color="#000000" data-original="#000000"/></g></svg>